<?xml version="1.0" encoding="utf-8"?>
<!-- Generator: Adobe Illustrator 25.0.1, SVG Export Plug-In . SVG Version: 6.00 Build 0)  -->
<svg version="1.1" id="horizontal" xmlns="http://www.w3.org/2000/svg" xmlns:xlink="http://www.w3.org/1999/xlink" x="0px" y="0px"
	 viewBox="0 0 700 370" style="enable-background:new 0 0 700 370;" xml:space="preserve">
<style type="text/css">
	.st0{fill:#FFFFFF;}
</style>
<g id="text">
	<path class="st0" d="M203.7,257.8c-28.6,0-51.9,23.3-51.9,51.9c0,28.6,23.3,51.9,51.9,51.9c28.6,0,51.9-23.3,51.9-51.9
		C255.5,281,232.3,257.8,203.7,257.8"/>
	<path class="st0" d="M58.7,257.8c-28.6,0-51.9,23.3-51.9,51.9c0,28.6,23.3,51.9,51.9,51.9c28.6,0,51.9-23.3,51.9-51.9
		C110.6,281,87.3,257.8,58.7,257.8"/>
	<path class="st0" d="M348.6,257.8c-28.6,0-51.9,23.3-51.9,51.9c0,28.6,23.3,51.9,51.9,51.9c28.6,0,51.9-23.3,51.9-51.9
		C400.5,281,377.2,257.8,348.6,257.8"/>
	<path class="st0" d="M638.4,257.8c-28.6,0-51.9,23.3-51.9,51.9c0,28.6,23.3,51.9,51.9,51.9c28.6,0,51.9-23.3,51.9-51.9
		C690.3,281,667,257.8,638.4,257.8"/>
	<path class="st0" d="M493.5,257.8c-28.6,0-51.9,23.3-51.9,51.9c0,28.6,23.3,51.9,51.9,51.9c28.6,0,51.9-23.3,51.9-51.9
		C545.4,281,522.1,257.8,493.5,257.8"/>
	<path class="st0" d="M102,110.8c0-24.2-18.3-42.5-42.5-42.5c-24.2,0-42.5,18.3-42.5,42.5c0,24.2,18.3,42.5,42.5,42.5
		C83.7,153.4,102,135.1,102,110.8 M-1,110.8c0-33.6,27-59,60.4-59c33.6,0,60.4,25.2,60.4,58.8v51.7c0,5.3-3.7,8.9-9.1,8.9
		c-5.7,0-9.2-3.7-9.2-8.9v-15.1h-0.9c-7.1,12.1-21.3,22.6-42.3,22.6C25.8,169.8-1,144.7-1,110.8"/>
	<path class="st0" d="M246.5,110.8c0-24.2-18.3-42.5-42.5-42.5s-42.5,18.3-42.5,42.5c0,24.2,18.3,42.5,42.5,42.5
		S246.5,135.1,246.5,110.8 M166.9,208c-4.8-2.3-7.1-6.4-5.3-11.2c1.8-5,6.4-7.1,11.2-4.8c8.2,3.9,18.5,6.6,29.5,6.6
		c27.2,0,43.7-16.2,43.7-43.9v-7.6h-0.9c-7.1,12.1-21.3,22.6-42.3,22.6c-32.5,0-59.2-25.2-59.2-59c0-33.6,27-59,60.4-59
		c33.6,0,60.4,25.2,60.4,58.8v43c0,37.1-23.8,62-62.7,62C189.8,215.6,177.9,213.3,166.9,208"/>
	<path class="st0" d="M391.1,110.8c0-24.2-18.3-42.5-42.5-42.5c-24.2,0-42.5,18.3-42.5,42.5c0,24.2,18.3,42.5,42.5,42.5
		C372.8,153.4,391.1,135.1,391.1,110.8 M288.2,110.8c0-33.6,26.8-59,60.4-59c33.6,0,60.4,25.4,60.4,59c0,33.6-26.8,59-60.4,59
		C314.9,169.8,288.2,144.4,288.2,110.8"/>
	<path class="st0" d="M535.7,110.8c0-24.2-18.3-42.5-42.5-42.5c-24.2,0-42.5,18.3-42.5,42.5c0,24.2,18.3,42.5,42.5,42.5
		C517.4,153.4,535.7,135.1,535.7,110.8 M432.7,110.8c0-33.6,26.5-59,59.2-59c21,0,35.2,10.5,42.3,22.6h0.9V14.3
		c0-5.3,3.7-8.9,9.2-8.9c5.7,0,9.1,3.7,9.1,8.9V111c0,33.6-26.8,58.8-60.4,58.8C459.7,169.8,432.7,144.4,432.7,110.8"/>
	<path class="st0" d="M680.3,110.8c0-24.2-18.3-42.5-42.5-42.5c-24.2,0-42.5,18.3-42.5,42.5c0,24.2,18.3,42.5,42.5,42.5
		C662,153.4,680.3,135.1,680.3,110.8 M577.3,110.8c0-33.6,27-59,60.4-59c33.6,0,60.4,25.2,60.4,58.8v51.7c0,5.3-3.7,8.9-9.1,8.9
		c-5.7,0-9.2-3.7-9.2-8.9v-15.1h-0.9c-7.1,12.1-21.3,22.6-42.3,22.6C604.1,169.8,577.3,144.7,577.3,110.8"/>
</g>
</svg>
