<?xml version="1.0" encoding="utf-8"?>
<!-- Generator: Adobe Illustrator 24.1.1, SVG Export Plug-In . SVG Version: 6.00 Build 0)  -->
<svg version="1.1" id="Layer_1" xmlns="http://www.w3.org/2000/svg" xmlns:xlink="http://www.w3.org/1999/xlink" x="0px" y="0px"
	 viewBox="0 0 24 24" style="enable-background:new 0 0 24 24;" xml:space="preserve">
<style type="text/css">
	.st0{fill:none;}
	.st1{fill:#2CAAE1;}
</style>
<g>
	<rect x="0" y="0" transform="matrix(6.123234e-17 -1 1 6.123234e-17 3.183231e-12 24)" class="st0" width="24" height="24"/>
	<path class="st1" d="M3.14,8.4c-0.19,0.19-0.19,0.48,0,0.67l8.53,8.53c0.19,0.19,0.48,0.19,0.67,0l8.53-8.53
		C20.95,8.98,21,8.86,21,8.74c0-0.12-0.05-0.24-0.14-0.33c-0.19-0.19-0.48-0.19-0.67,0L12,16.59L3.81,8.4
		C3.62,8.22,3.32,8.22,3.14,8.4z"/>
</g>
</svg>
