<?xml version="1.0" encoding="UTF-8"?>
<svg xmlns="http://www.w3.org/2000/svg" xmlns:xlink="http://www.w3.org/1999/xlink" width="664pt" height="138pt" viewBox="0 0 664 138" version="1.1">
<g id="surface1">
<path style=" stroke:none;fill-rule:nonzero;fill:rgb(100%,100%,100%);fill-opacity:1;" d="M 268.9375 25.070312 C 274.433594 23.289062 280.820312 27.28125 281.5625 33.03125 C 282.65625 38.515625 278.308594 44.242188 272.746094 44.648438 C 267.566406 45.332031 262.375 41.285156 261.824219 36.082031 C 261.050781 31.292969 264.257812 26.3125 268.9375 25.070312 Z M 203.398438 109.929688 L 220.753906 109.929688 C 220.785156 101.648438 220.753906 93.371094 220.773438 85.078125 C 222.554688 85.316406 225.082031 84.699219 226.125 86.609375 C 229.539062 92.84375 232.695312 99.222656 236.183594 105.40625 C 237.628906 108.089844 240.5 109.777344 243.539062 109.839844 C 248.710938 110.046875 253.890625 109.859375 259.066406 109.929688 C 254.367188 101.96875 249.289062 94.234375 245.171875 85.957031 C 243.59375 83.074219 242.328125 79.941406 239.949219 77.585938 C 241.152344 76.300781 242.285156 74.945312 243.25 73.472656 C 248.46875 65.707031 253.71875 57.953125 258.910156 50.167969 L 239.359375 50.164062 L 227.59375 68.328125 C 226.191406 70.6875 223.074219 70.085938 220.765625 70.230469 L 220.785156 36.03125 C 220.78125 33.742188 220.566406 31.1875 218.917969 29.4375 C 217.433594 27.84375 215.15625 27.394531 213.070312 27.355469 L 203.398438 27.355469 C 203.398438 54.875 203.378906 82.398438 203.398438 109.929688 Z M 303.136719 51.027344 C 299.132812 49.503906 294.773438 50.394531 290.605469 50.164062 L 290.605469 109.921875 C 296.34375 109.9375 302.082031 109.929688 307.820312 109.921875 L 307.820312 81.308594 C 307.945312 76.785156 309.355469 72.03125 312.65625 68.792969 C 315.976562 65.523438 321.0625 64.121094 325.566406 65.324219 C 328.910156 66.414062 329.6875 70.335938 329.765625 73.414062 C 329.820312 81.550781 329.777344 89.6875 329.78125 97.816406 C 329.800781 100.683594 329.527344 103.777344 330.980469 106.367188 C 332.207031 108.5 334.625 109.621094 337.011719 109.792969 C 340.386719 110.085938 343.78125 109.867188 347.179688 109.917969 C 346.757812 96.261719 347.179688 82.59375 346.957031 68.929688 C 346.601562 63.316406 344.855469 57.394531 340.488281 53.574219 C 335.675781 49.292969 328.824219 48.398438 322.628906 48.984375 C 316.789062 49.542969 311.277344 52.421875 307.4375 56.851562 C 306.832031 54.453125 305.609375 51.945312 303.136719 51.027344 Z M 449.921875 102.910156 C 463.183594 115.210938 486.324219 113.628906 498.074219 99.96875 L 490.929688 88.054688 C 486.265625 93 479.765625 96.851562 472.78125 96.480469 C 466.96875 96.324219 461.042969 93.15625 458.585938 87.71875 C 456.097656 82.191406 456.460938 75.328125 459.695312 70.183594 C 463.027344 64.835938 469.929688 62.226562 476.007812 63.660156 C 477.464844 64.09375 479.269531 64.652344 479.796875 66.285156 C 480.511719 68.417969 482.132812 70.488281 484.519531 70.757812 C 487.910156 70.996094 491.324219 70.773438 494.730469 70.851562 C 494.410156 66.414062 495.699219 61.515625 493.257812 57.503906 C 490.808594 53.460938 486.21875 51.417969 481.839844 50.195312 C 470.527344 47.226562 457.433594 49.855469 449.03125 58.273438 C 437.175781 70.023438 437.5 91.667969 449.921875 102.910156 Z M 580.417969 51.675781 C 576.519531 49.578125 571.917969 50.546875 567.695312 50.332031 C 567.6875 70.199219 567.6875 90.058594 567.695312 109.917969 L 583.917969 109.921875 L 583.914062 86.609375 C 583.917969 82.097656 584.214844 77.46875 585.984375 73.257812 C 587.453125 69.664062 589.964844 66.132812 593.742188 64.753906 C 596.441406 63.882812 599.9375 63.996094 601.914062 66.300781 C 603.9375 68.59375 604.183594 71.824219 604.253906 74.738281 L 604.246094 109.917969 C 609.769531 109.898438 615.296875 109.953125 620.828125 109.886719 C 620.785156 100.597656 620.816406 91.304688 620.800781 82.023438 C 621.066406 76.859375 622.601562 71.441406 626.320312 67.695312 C 629.128906 64.855469 633.59375 63.34375 637.425781 64.890625 C 640.390625 66.257812 640.785156 69.960938 640.960938 72.832031 C 640.996094 82.027344 640.964844 91.222656 640.964844 100.421875 C 640.910156 103.523438 641.457031 107.382812 644.585938 108.875 C 648.648438 110.652344 653.21875 109.648438 657.503906 109.929688 C 657.554688 97.328125 657.515625 84.71875 657.527344 72.117188 C 657.464844 66.113281 656.628906 59.640625 652.628906 54.886719 C 648.503906 49.960938 641.59375 48.5625 635.460938 49.121094 C 628.578125 49.679688 622.199219 53.589844 618.222656 59.195312 C 616.894531 57.074219 615.660156 54.816406 613.71875 53.1875 C 609.484375 49.441406 603.425781 48.488281 597.980469 49.246094 C 592.386719 50.011719 587.453125 53.347656 583.886719 57.632812 C 583.28125 55.417969 582.628906 52.847656 580.417969 51.675781 Z M 263.890625 109.921875 L 280.941406 109.921875 C 280.921875 92.734375 280.964844 75.546875 280.921875 58.367188 C 280.929688 55.304688 279.429688 51.980469 276.378906 50.914062 C 272.300781 49.566406 267.9375 50.382812 263.714844 50.167969 C 263.765625 70.085938 263.972656 90 263.890625 109.921875 Z M 79.988281 55.167969 C 66.019531 65.425781 64.375 87.898438 75.738281 100.671875 C 87.496094 114.214844 111.144531 114.226562 123.085938 100.914062 C 134.117188 88.757812 133.289062 67.644531 120.921875 56.707031 C 113.363281 49.898438 102.488281 47.742188 92.660156 49.605469 C 88.085938 50.496094 83.695312 52.351562 79.988281 55.167969 Z M 109.992188 68.261719 C 114.964844 74.320312 115.214844 83.679688 111.0625 90.234375 C 107.230469 96.230469 98.535156 97.953125 92.496094 94.417969 C 84.773438 89.84375 83.363281 78.90625 87.027344 71.285156 C 88.6875 67.902344 91.738281 65.210938 95.371094 64.144531 C 100.496094 62.644531 106.496094 64.113281 109.992188 68.261719 Z M 143.679688 57.816406 C 132.355469 69.09375 132.054688 89.367188 142.847656 101.097656 C 154.894531 114.382812 178.554688 114.070312 190.234375 100.445312 C 196.894531 92.855469 198.863281 81.929688 196.683594 72.210938 C 195.066406 64.964844 190.6875 58.324219 184.460938 54.253906 C 177.085938 49.242188 167.628906 48 158.992188 49.679688 C 153.265625 50.890625 147.800781 53.621094 143.679688 57.816406 Z M 174.769531 66.410156 C 178.558594 69.308594 180.46875 74.136719 180.640625 78.816406 C 180.890625 83.792969 179.535156 89.167969 175.773438 92.628906 C 171.316406 96.8125 164.082031 97.382812 158.910156 94.230469 C 152.488281 90.253906 150.726562 81.652344 152.480469 74.722656 C 153.628906 69.828125 157.300781 65.445312 162.242188 64.105469 C 166.476562 62.972656 171.285156 63.644531 174.769531 66.410156 Z M 508.449219 57.332031 C 496.691406 68.429688 496.183594 89.003906 506.957031 100.941406 C 518.789062 114.167969 542.09375 114.136719 554 101.027344 C 565.03125 88.972656 564.34375 68.007812 552.199219 56.960938 C 544.769531 50.074219 533.960938 47.792969 524.148438 49.523438 C 518.328125 50.546875 512.734375 53.210938 508.449219 57.332031 Z M 538.523438 66.039062 C 542.769531 68.988281 544.898438 74.292969 544.917969 79.363281 C 545.074219 83.941406 543.785156 88.753906 540.550781 92.113281 C 535.585938 97.347656 526.371094 97.667969 521.144531 92.65625 C 515.421875 87.214844 514.726562 77.855469 518.171875 71.007812 C 519.910156 67.609375 523.121094 64.960938 526.832031 64.011719 C 530.773438 63.078125 535.179688 63.636719 538.523438 66.039062 Z M 353.660156 70.117188 C 351.824219 79.066406 352.785156 88.902344 357.695312 96.75 C 361.324219 102.632812 367.480469 106.894531 374.28125 108.140625 C 381.0625 109.378906 388.660156 108.585938 394.109375 104.007812 C 394.339844 107.914062 393.34375 112.246094 390.085938 114.726562 C 385.796875 117.941406 380.035156 118.046875 374.945312 117.28125 C 372.039062 116.910156 369.339844 115.707031 366.484375 115.1875 C 364.667969 114.859375 362.714844 115.71875 361.855469 117.375 C 360.152344 120.554688 359.085938 124.023438 357.726562 127.355469 C 364.78125 131.269531 372.90625 133.195312 380.949219 133.0625 C 389.59375 132.78125 398.652344 130.027344 404.640625 123.503906 C 409.273438 118.535156 411.292969 111.640625 411.292969 104.949219 C 411.292969 86.625 411.296875 68.308594 411.285156 49.988281 C 407.828125 50.105469 404.332031 49.707031 400.90625 50.289062 C 398.632812 50.695312 396.882812 52.382812 395.863281 54.382812 C 388.589844 47.917969 377.539062 47.246094 368.757812 50.757812 C 360.722656 53.957031 355.328125 61.8125 353.660156 70.117188 Z M 388.519531 65.199219 C 392.335938 67.066406 393.941406 71.507812 394.277344 75.503906 C 394.617188 80.242188 394.480469 85.472656 391.632812 89.5 C 387.457031 95.21875 377.765625 94.925781 373.625 89.304688 C 370.417969 85.007812 369.761719 79.21875 370.679688 74.054688 C 371.332031 70.179688 373.457031 66.175781 377.300781 64.714844 C 380.886719 63.359375 385.0625 63.574219 388.519531 65.199219 Z M 6.488281 109.597656 C 16.5625 109.585938 26.636719 109.617188 36.703125 109.585938 C 45.394531 109.390625 54.765625 106.210938 59.808594 98.707031 C 64.394531 91.863281 64.828125 82.480469 61.226562 75.121094 C 59.238281 71.027344 55.542969 68.128906 51.558594 66.128906 L 54.378906 63.6875 C 62.121094 56.230469 62.578125 42.429688 55.0625 34.664062 C 50.1875 29.53125 42.898438 27.5 36.007812 27.34375 L 15.015625 27.34375 C 10.421875 27.222656 6.195312 31.40625 6.484375 36.042969 C 6.496094 60.5625 6.484375 85.078125 6.488281 109.597656 Z M 30.082031 40.953125 C 33.605469 41.054688 37.558594 40.433594 40.605469 42.65625 C 45.046875 45.933594 45.222656 52.953125 42.109375 57.207031 C 40.527344 59.296875 37.921875 60.425781 35.34375 60.476562 C 31.027344 60.558594 26.710938 60.476562 22.394531 60.496094 L 22.394531 47.183594 C 22.445312 45.457031 22.5625 43.488281 23.953125 42.257812 C 25.5625 40.679688 28.027344 41.011719 30.082031 40.953125 Z M 31.394531 73.296875 C 35.511719 73.320312 40.179688 72.96875 43.554688 75.804688 C 47.683594 79.335938 48.152344 85.878906 45.742188 90.523438 C 44.144531 93.589844 40.679688 95.394531 37.289062 95.457031 C 32.324219 95.507812 27.363281 95.445312 22.402344 95.472656 L 22.394531 79.324219 C 22.4375 77.480469 22.71875 75.316406 24.417969 74.242188 C 26.484375 72.914062 29.070312 73.398438 31.394531 73.296875 Z M 417.882812 101.773438 C 418.332031 107.042969 423.53125 111.222656 428.773438 110.558594 C 434.085938 110.199219 438.332031 105 437.738281 99.722656 C 437.433594 93.722656 430.910156 89.160156 425.171875 90.9375 C 420.476562 92.078125 417.191406 96.984375 417.882812 101.773438 Z M 417.882812 101.773438 "/>
</g>
</svg>
