<?xml version="1.0" encoding="UTF-8"?>
<svg xmlns="http://www.w3.org/2000/svg" xmlns:xlink="http://www.w3.org/1999/xlink" width="663pt" height="221pt" viewBox="0 0 663 221" version="1.1">
<g id="surface1">
<path style=" stroke:none;fill-rule:nonzero;fill:rgb(100%,100%,100%);fill-opacity:1;" d="M 329.722656 164.003906 L 309.058594 164.003906 L 308.847656 163.921875 L 291.046875 142.054688 L 273.226562 163.921875 L 273.027344 164.003906 L 256.480469 164.011719 L 256.230469 163.851562 L 256.269531 163.601562 L 282.5 131.183594 L 256.5625 99.089844 L 256.519531 98.777344 L 256.75 98.625 L 277.425781 98.625 L 277.617188 98.746094 L 293.246094 118.234375 L 309.140625 98.726562 L 309.339844 98.617188 L 326.1875 98.617188 L 326.425781 98.765625 L 326.386719 99.078125 L 301.785156 128.8125 L 329.902344 163.582031 L 329.941406 163.832031 Z M 471.5625 135.371094 L 471.332031 135.492188 L 424.027344 135.503906 C 425.023438 146.582031 432.164062 152.890625 443.746094 152.890625 C 450.878906 152.890625 458.445312 150.441406 469.132812 144.714844 L 469.535156 144.976562 L 469.503906 159.613281 L 469.355469 159.832031 C 459.398438 164.0625 449.414062 166.933594 441.558594 166.933594 C 421.207031 166.945312 406.429688 152.007812 406.417969 131.445312 C 406.417969 110.882812 421.1875 95.945312 441.546875 95.945312 C 460.121094 95.933594 472.066406 108.53125 472.066406 125.859375 C 472.066406 128.640625 471.59375 135.160156 471.5625 135.371094 Z M 441.546875 110.117188 C 432.40625 110.117188 426.136719 115.714844 424.371094 125.425781 L 455.5 125.417969 L 455.5 124.785156 C 455.5 117.03125 449.816406 110.117188 441.546875 110.117188 Z M 559.128906 163.960938 L 558.859375 163.699219 L 558.847656 98.847656 L 559.058594 98.574219 L 576.148438 98.574219 L 576.359375 98.847656 L 576.367188 163.691406 L 576.117188 163.953125 L 559.128906 163.953125 Z M 567.609375 85.085938 C 561.800781 85.085938 557.089844 80.414062 557.089844 74.667969 C 557.089844 68.742188 561.8125 63.9375 567.609375 63.9375 C 573.40625 63.9375 578.125 68.742188 578.125 74.667969 C 578.136719 80.402344 573.414062 85.074219 567.609375 85.085938 Z M 365.605469 95.964844 C 360.78125 95.964844 355.910156 96.847656 350.816406 98.617188 L 333.808594 98.617188 L 333.578125 98.886719 L 333.597656 205.21875 C 338.722656 204.503906 345.019531 202.675781 351.128906 198.289062 L 351.117188 165.949219 C 355.296875 166.554688 358.761719 166.945312 362.109375 166.945312 C 385.382812 166.933594 400.441406 152.902344 400.433594 131.152344 C 400.421875 110.429688 386.097656 95.953125 365.605469 95.964844 Z M 360.964844 154.226562 C 357.890625 154.226562 354.734375 153.785156 351.109375 152.8125 L 351.140625 111.214844 C 355.378906 109.855469 359.085938 109.214844 362.742188 109.214844 C 374.574219 109.214844 382.53125 118.003906 382.53125 131.054688 C 382.519531 145.125 374.050781 154.226562 360.964844 154.226562 Z M 528.007812 64.25 L 528.019531 98.195312 C 523.027344 96.769531 518.65625 96.09375 514.214844 96.09375 C 493.957031 96.09375 478.664062 111.472656 478.664062 131.875 C 478.675781 152.1875 492.167969 166.914062 510.730469 166.914062 C 517.160156 166.914062 523.167969 165.289062 530.238281 161.632812 L 530.21875 167.488281 C 534.898438 166.582031 540.265625 164.714844 545.558594 160.9375 L 545.539062 57.300781 C 540.34375 58.003906 534.1875 59.75 528.007812 64.25 Z M 528.019531 148.824219 C 522.707031 151.636719 517.964844 152.972656 513.492188 152.972656 C 502.945312 152.972656 496.628906 145.488281 496.628906 132.929688 C 496.628906 118.40625 504.695312 109.003906 517.160156 109.003906 C 520.605469 109.003906 523.941406 109.847656 528.007812 111.707031 Z M 653.085938 97.78125 L 652.339844 97.058594 L 638.550781 97.089844 L 637.785156 97.832031 L 637.785156 100.195312 L 637.445312 100.195312 C 631.074219 97.390625 625.632812 96.085938 620.285156 96.085938 C 601.199219 96.085938 586.203125 112.035156 586.203125 132.449219 C 586.203125 153.074219 599.613281 166.90625 619.5625 166.90625 C 624.898438 166.90625 631.738281 166.542969 638.136719 159.128906 L 638.136719 167.457031 C 642.667969 166.492188 648.003906 164.566406 653.074219 160.886719 Z M 635.535156 148.664062 C 630.390625 151.65625 625.972656 153.101562 622.035156 153.101562 C 610.753906 153.101562 603.992188 145.640625 603.992188 133.042969 C 603.984375 118.738281 611.949219 109.125 623.78125 109.125 C 626.96875 109.125 630.8125 110.347656 635.535156 112.859375 Z M 209.207031 147.777344 L 252.101562 147.769531 C 251.457031 152.589844 249.839844 158.234375 246.125 163.992188 L 209.328125 164.003906 L 202.003906 164.003906 L 201.523438 164.011719 C 196.058594 164.011719 191.566406 159.753906 191.035156 154.367188 L 190.964844 154.136719 L 190.953125 109.949219 L 190.933594 69.050781 L 191.003906 68.839844 C 191.535156 63.445312 196.027344 59.167969 201.480469 59.167969 L 201.964844 59.1875 L 251.980469 59.167969 C 251.316406 63.980469 249.699219 69.753906 245.984375 75.5 L 209.1875 75.511719 L 209.1875 98.675781 L 245.601562 98.667969 L 245.863281 98.917969 L 245.863281 114.980469 L 245.601562 115.230469 L 209.1875 115.242188 Z M 100.222656 75.453125 L 97.121094 66.601562 L 70.730469 31.140625 L 75.472656 29.957031 L 120.957031 69.496094 L 147.71875 61.78125 C 150.863281 60.964844 154.429688 60.785156 157.152344 60.804688 C 148.742188 42.550781 133.34375 27.585938 113.019531 20.300781 C 72.839844 5.898438 28.679688 27.03125 14.386719 67.457031 C 9.964844 79.972656 8.921875 92.859375 10.777344 105.136719 L 74.878906 82.722656 Z M 159.964844 67.796875 C 157.601562 69.324219 154.167969 71.351562 150.730469 72.449219 L 123.910156 80.152344 L 106.03125 137.953125 L 101.390625 139.480469 L 105.164062 95.339844 L 103.054688 86.167969 L 77.933594 93.402344 L 11.503906 109.144531 C 16.777344 134.851562 34.867188 157.25 61.257812 166.714844 C 101.4375 181.109375 145.578125 159.984375 159.863281 119.582031 C 166.011719 102.140625 165.609375 83.980469 159.964844 67.796875 Z M 159.964844 67.796875 "/>
</g>
</svg>
