<svg xmlns="http://www.w3.org/2000/svg" width="163.74" height="20" viewBox="0 0 163.74 20">
    <path fill="#fff" d="M24.96 19.76V4.75h3.05v6.08h4.83V4.75h3.05v14.98h-3.05v-6.15h-4.83v6.15h-3.05v.03zM37.66 14.8c0-3 1.63-5.63 4.78-5.63s4.79 2.65 4.79 5.63c0 2.79-1.46 5.17-4.79 5.17s-4.78-2.38-4.78-5.17zm2.82 0c0 1.87.61 2.62 2 2.62s2-.72 2-2.59-.51-3-2-3-2 1.17-2 2.94zM48.9 11.78h-1.36V9.37h1.36V6.89h2.61v2.48h2.82v2.41h-2.82v3.77c0 1.67.07 2 .58 2 .34 0 .44-.17.44-.54a1.11 1.11 0 00-.07-.38h1.94a3.12 3.12 0 01.13.92A2.36 2.36 0 0151.88 20c-2 0-3-1.06-3-3.43v-4.79zM61.46 16.67a1.48 1.48 0 000-.3h2.14a2.13 2.13 0 01.17.88c0 2-2 2.75-3.63 2.75-3.3 0-4.89-2.21-4.89-5.2S56.71 9.2 60 9.2a3.78 3.78 0 014 4 7.57 7.57 0 01-.31 2.11h-5.8c0 1.56.78 2.41 2.27 2.41 1.03-.06 1.3-.64 1.3-1.05zm-3.53-3.39h3.53a1.48 1.48 0 00-1.66-1.77 1.77 1.77 0 00-1.87 1.77zM65.5 19.76V4.79h2.68v14.97H65.5zM69.78 17.05a2.45 2.45 0 01.27-1.12h2.45a1.58 1.58 0 00-.14.67c0 .72.61 1.06 1.53 1.06s1.42-.34 1.42-.89c0-.71-.68-.95-1.83-1.25-1.63-.41-3.5-.78-3.5-3.09 0-2.11 1.56-3.23 3.81-3.23 1.93 0 3.73.92 3.73 2.79a3 3 0 01-.17 1h-2.44a1.79 1.79 0 00.1-.54c0-.58-.51-.92-1.19-.92-.95 0-1.36.41-1.36.85s.61.81 1.8 1.09c1.63.37 3.57.81 3.57 3.19S76.26 20 73.82 20s-4.04-1.22-4.04-2.95zM79.19 12.7c0-4.35 2.44-7.91 6.58-7.91 3.26 0 4.89 1.87 4.89 4.07a4.59 4.59 0 01-.2 1.46h-2.58a3.13 3.13 0 00.12-.78c0-1.08-.68-1.9-2.21-1.9-2.41 0-3.53 2.07-3.53 5 0 2.41.85 4.44 3.46 4.44a2 2 0 002.24-2.2 2.59 2.59 0 00-.07-.58h2.62a3.7 3.7 0 01.17 1.15c0 3.2-2.62 4.49-5.1 4.49-4.83.06-6.39-3.3-6.39-7.24zM92.29 14.8c0-3 1.63-5.63 4.79-5.63s4.79 2.65 4.79 5.63c0 2.79-1.46 5.17-4.79 5.17s-4.79-2.38-4.79-5.17zm2.82 0c0 1.87.61 2.62 2 2.62s2-.72 2-2.59-.51-3-2-3-2 1.17-2 2.94zM110.76 10.59a3.17 3.17 0 012.62-1.42c2.27 0 3.56 1.63 3.56 4.07v6.52h-2.68v-6c0-1.33-.47-1.94-1.36-1.94s-1.36.78-1.36 1.9v6.08h-2.68v-6c0-1.33-.47-1.94-1.42-1.94s-1.4.78-1.4 1.8v6.18h-2.68V9.37h2.58v1h0a2.81 2.81 0 012.31-1.19 2.68 2.68 0 012.51 1.41zM118.71 4.75h2.68v5.3h0a3.22 3.22 0 012.27-.88c2.92 0 4.25 2.51 4.25 5.46S126.59 20 123.67 20a3.08 3.08 0 01-2.38-1.12h0v.91h-2.58v-15zm2.72 10c0 1.33.47 2.65 2 2.65 1.32 0 2-1.26 2-2.58 0-1.63-.45-3.06-2-3.06s-2 1.52-2 3.01zM131.17 4.75a1.7 1.7 0 11-1.7 1.7 1.75 1.75 0 011.7-1.7zM129.85 9.37h2.68v10.39h-2.68zM137.59 19.76h-2.68V9.37h2.68v1h0a3 3 0 012.55-1.22 3.4 3.4 0 013.29 3.7v6.86h-2.75v-6.16c0-1.12-.54-1.8-1.46-1.8s-1.69.34-1.69 2.14v5.87zM151 16.67a1.13 1.13 0 000-.3h2.18a2.13 2.13 0 01.17.88c0 2-2 2.75-3.64 2.75-3.29 0-4.89-2.21-4.89-5.2s1.46-5.6 4.72-5.6a3.8 3.8 0 014 4 7.57 7.57 0 01-.31 2.11h-5.81c0 1.56.79 2.41 2.28 2.41 1-.06 1.3-.64 1.3-1.05zm-3.53-3.39H151a1.49 1.49 0 00-1.67-1.77 1.76 1.76 0 00-1.89 1.77zM163.74 19.76h-2.48v-.88h0a3.35 3.35 0 01-2.52 1.12c-2 0-4.07-1.6-4.07-5.44 0-3.19 1.73-5.36 3.94-5.36a3.18 3.18 0 012.41.88h0V4.79h2.69v15zm-6.56-5c0 1.87 1 2.62 2.07 2.62s1.94-.92 1.94-2.59c0-2-.78-3-1.94-3s-2.07 1.01-2.07 2.98zM20.17 15.18a56.56 56.56 0 00-1.05-10.39 3.67 3.67 0 00-1.5-2.31 3.82 3.82 0 00-1.49-.71h-.1a18.42 18.42 0 00-5.91-.96 17.38 17.38 0 00-5.91.92h-.1a5.59 5.59 0 00-1.5.71 3.66 3.66 0 00-1.49 2.35 55.7 55.7 0 00-1 10.39 20.2 20.2 0 00.1 2.21 2.59 2.59 0 00.41 1.39c.3.37.78 1 2.75 1h13.53c2 0 2.41-.61 2.75-1a3 3 0 00.41-1.39 11.59 11.59 0 00.1-2.21z"/>
    <path d="M2.31 4.62h0a2.31 2.31 0 112.31-2.31 2.31 2.31 0 01-2.31 2.31M18 4.62h0a2.31 2.31 0 112.31-2.31A2.34 2.34 0 0118 4.62" fill="#fff"/>
    <path d="M3.84 8.42a1 1 0 000 .34 1.4 1.4 0 001.33 1.32 1.37 1.37 0 001.38-1.35 1.05 1.05 0 000-.31c0-.07-.1-.13-.17-.13H4a.17.17 0 00-.17.13M13.28 8.42a1 1 0 000 .34 1.4 1.4 0 001.33 1.32A1.37 1.37 0 0016 8.73a1.05 1.05 0 000-.31.21.21 0 00-.17-.13h-2.38c-.11 0-.17 0-.17.13" fill="#2c4162"/>
    <path d="M13.65 14.57v-.17v-.31a32.22 32.22 0 00-.88-5.57h0c0-.13-.13-.2-.3-.23H7.3a.39.39 0 00-.3.23h0a36 36 0 00-.88 5.57v.27c0 .78 1.7 1.74 3.77 1.74c1.9 0 3.46-.79 3.74-1.53c-.01.03-.01 0 .02 0z" fill="#00aef0"/>
    <path d="M12.5 8.29H7.3a.33.33 0 00-.31.3v.17a8.54 8.54 0 00.58 1.12A8 8 0 009 11.61c.17.17.38.38.58.55a.64.64 0 00.38.13a.51.51 0 00.37-.13c.2-.17.37-.34.58-.55a8 8 0 001.35-1.73a7.84 7.84 0 00.58-1.12a.33.33 0 000-.17a.41.41 0 00-.34-.3z" fill="#2c4162"/>
</svg>
