<?xml version="1.0" encoding="UTF-8"?>
<svg xmlns="http://www.w3.org/2000/svg" xmlns:xlink="http://www.w3.org/1999/xlink" width="664pt" height="126pt" viewBox="0 0 664 126" version="1.1">
<g id="surface1">
<path style=" stroke:none;fill-rule:nonzero;fill:rgb(100%,100%,100%);fill-opacity:1;" d="M 170.714844 50.113281 L 163.21875 50.089844 C 154.546875 50.089844 154.03125 37.789062 163.425781 37.449219 C 165.730469 37.363281 168.050781 37.425781 170.714844 37.425781 C 170.714844 33.371094 170.6875 29.667969 170.714844 25.960938 C 170.820312 15.261719 184.433594 15.640625 184.550781 25.835938 C 184.609375 29.558594 184.574219 33.28125 184.574219 37.40625 C 188.296875 37.40625 191.765625 37.371094 195.234375 37.417969 C 200.042969 37.472656 202.847656 39.855469 202.824219 43.785156 C 202.792969 47.621094 199.886719 50.050781 195.128906 50.109375 C 191.753906 50.152344 187.894531 50.109375 184.582031 50.109375 C 184.582031 83.132812 184.511719 83.25 184.730469 85.59375 C 185.4375 93.324219 190.363281 96.617188 197.675781 94.042969 C 203.285156 92.066406 208.644531 89.476562 213.515625 85.496094 C 202.054688 52.890625 231.546875 26.78125 260.535156 38.234375 C 275.015625 43.960938 281.347656 55.484375 282.554688 70.367188 C 282.910156 74.636719 280.152344 77.488281 275.515625 77.851562 C 263.75 78.765625 258.605469 79.097656 226.34375 81.460938 C 226.714844 87.488281 235.730469 94.417969 242.960938 95.03125 C 251.007812 95.71875 258.246094 94 264.460938 88.601562 C 270.785156 83.101562 279.230469 90.492188 273.722656 97.351562 C 269.851562 102.175781 264.523438 104.945312 258.667969 106.371094 C 244.1875 109.902344 230.871094 108.050781 219.828125 96.847656 C 214.472656 100.816406 208.78125 103.949219 202.53125 106.011719 C 196.808594 107.890625 191.007812 107.882812 185.273438 106.308594 C 175.84375 103.714844 171.019531 96.34375 170.808594 84.085938 C 170.625 74.582031 170.726562 67.078125 170.726562 50.113281 Z M 224.734375 69.289062 L 268.640625 66.097656 C 266.210938 54.488281 255.890625 47.417969 243.78125 48.832031 C 232.976562 50.089844 224.433594 59.140625 224.742188 69.292969 Z M 474.023438 88.113281 C 466.671875 98.097656 457.691406 105.078125 445.6875 107.1875 C 422.332031 111.285156 401.308594 95.273438 403.804688 67.703125 C 404.890625 55.6875 410.371094 46.066406 421.289062 40.308594 C 433.65625 33.789062 451.800781 33.4375 463.339844 46.625 C 470.082031 54.328125 459.761719 61.574219 454.257812 55.332031 C 448.144531 48.390625 437.339844 46.570312 429.574219 50.300781 C 421.359375 54.253906 416.363281 63.628906 417.105469 73.554688 C 417.792969 82.777344 421.398438 90.125 430.386719 93.617188 C 446.683594 99.957031 460.039062 88.519531 469.140625 73.316406 C 471.578125 69.25 471.027344 64.511719 472.539062 60.210938 C 476.847656 47.953125 485.09375 40.28125 497.726562 37.398438 C 511.921875 34.15625 526.09375 39.546875 534.445312 51.257812 C 543.648438 64.179688 543.015625 82.472656 532.921875 94.992188 C 519.03125 112.214844 487.929688 113.433594 474.023438 88.121094 Z M 505.90625 49.375 C 476.710938 49.066406 477.078125 94.589844 505.539062 94.769531 C 517.84375 94.84375 527.589844 85.054688 527.65625 72.53125 C 527.738281 58.996094 518.839844 49.519531 505.90625 49.378906 Z M 545.992188 67.875 C 546.164062 78.164062 546.015625 88.457031 546.027344 98.742188 C 546.027344 104.140625 548.441406 107.078125 552.820312 107.066406 C 557.226562 107.054688 559.316406 104.5 559.324219 99.007812 C 559.335938 88.714844 559.335938 78.429688 559.324219 68.136719 C 559.324219 63.113281 560.824219 58.628906 564.566406 55.234375 C 570.707031 49.667969 577.8125 48.589844 585.34375 51.910156 C 592.398438 55.027344 595.535156 60.847656 595.5625 68.40625 C 595.597656 78.925781 595.585938 89.453125 595.5625 99.976562 C 595.5625 102.882812 596.304688 105.261719 599.261719 106.476562 C 604.183594 108.503906 608.835938 105.425781 608.875 99.945312 C 609.105469 66.132812 608.304688 64.585938 609.964844 60.804688 C 617.453125 43.855469 644.738281 47.667969 644.808594 67.832031 C 644.839844 78.476562 644.808594 89.117188 644.824219 99.75 C 644.835938 104.332031 647.367188 107.082031 651.441406 107.054688 C 655.535156 107.035156 658.0625 104.289062 658.082031 99.746094 C 658.097656 89.226562 657.773438 78.6875 658.15625 68.175781 C 659.226562 38.320312 621.578125 27.285156 602.085938 47.949219 C 583.238281 27.640625 545.457031 37.695312 545.980469 67.878906 Z M 18.90625 56.953125 C 18.90625 42.042969 18.933594 34.742188 18.882812 25.65625 C 18.847656 20.773438 16.296875 17.949219 12.175781 18.023438 C 8.242188 18.097656 5.820312 20.957031 5.820312 25.640625 L 5.820312 99.625 C 5.820312 104.332031 8.464844 107.253906 12.597656 107.242188 C 16.652344 107.230469 18.839844 104.6875 18.878906 99.683594 C 19.074219 68.835938 18.476562 70.417969 19.3125 69.339844 L 67.109375 69.339844 C 67.109375 84.539062 67.042969 91.542969 67.136719 100.335938 C 67.195312 104.707031 69.898438 107.390625 73.765625 107.335938 C 77.628906 107.277344 80.253906 104.5 80.257812 100.191406 C 80.285156 75.175781 80.285156 50.164062 80.257812 25.148438 C 80.257812 20.796875 77.714844 18.046875 73.847656 17.988281 C 69.828125 17.933594 67.160156 20.738281 67.132812 25.292969 C 66.914062 56.824219 67.492188 55.257812 66.699219 56.941406 L 18.902344 56.941406 Z M 322.628906 43.777344 C 316.601562 48.53125 314.804688 54.90625 315.933594 62.222656 C 318.8125 80.792969 347.316406 76.40625 358.617188 79.710938 C 361.191406 80.457031 363.515625 81.578125 363.769531 84.695312 C 364.015625 87.660156 362.722656 89.871094 360.105469 91.304688 C 350.804688 96.402344 341.359375 96.171875 331.828125 92.003906 C 329.722656 91.085938 328.375 89.5625 327.632812 87.191406 C 326.429688 83.394531 323.144531 81.824219 319.660156 82.929688 C 315.878906 84.132812 314.375 87.09375 315.367188 91.21875 C 318.675781 105.113281 337.679688 108.515625 351.753906 106.96875 C 367.175781 105.289062 379.011719 97.203125 376.746094 81.503906 C 373.914062 61.859375 344.449219 66.871094 333.105469 63.40625 C 328.3125 61.933594 327.242188 57.449219 330.644531 53.855469 C 333.550781 50.785156 343.980469 46.578125 357.007812 50.863281 C 359.640625 51.722656 361.589844 53.40625 362.777344 56.097656 C 365.925781 63.199219 377.523438 58.605469 374.800781 51.058594 C 373.65625 47.929688 371.742188 45.3125 369.132812 43.210938 C 362.433594 37.828125 354.460938 37.039062 346.695312 36.710938 C 337.730469 36.710938 329.597656 38.296875 322.640625 43.773438 Z M 123.488281 36.75 C 143.453125 36.664062 158.71875 51.710938 158.777344 71.527344 C 158.832031 92.15625 144.089844 107.390625 123.945312 107.496094 C 103.894531 107.609375 88.730469 92.316406 88.660156 71.910156 C 88.582031 51.847656 103.457031 36.835938 123.488281 36.746094 Z M 145.714844 71.917969 C 145.347656 58.183594 136.011719 48.871094 123.023438 49.273438 C 110.390625 49.660156 101.730469 59.351562 102 72.800781 C 102.25 85.515625 112.042969 95.238281 124.242188 94.90625 C 136.417969 94.585938 146.039062 84.277344 145.707031 71.917969 Z M 290.589844 98.972656 C 290.589844 103.773438 293.070312 106.726562 297.101562 106.832031 C 301.152344 106.929688 303.796875 103.984375 303.796875 99.203125 C 303.8125 74.6875 303.8125 50.164062 303.796875 25.648438 C 303.796875 20.738281 301.335938 17.960938 297.15625 18 C 293.035156 18.039062 290.601562 20.90625 290.597656 25.765625 C 290.582031 34.347656 290.582031 90.199219 290.597656 98.972656 Z M 400.667969 99.085938 C 400.667969 94.871094 397.382812 91.6875 393.054688 91.726562 C 388.75 91.769531 385.367188 95.019531 385.371094 99.117188 C 385.371094 103.226562 388.726562 106.417969 393.082031 106.445312 C 397.476562 106.480469 400.679688 103.378906 400.679688 99.09375 Z M 400.667969 99.085938 "/>
</g>
</svg>
