<?xml version="1.0" encoding="utf-8"?>
<!-- Generator: Adobe Illustrator 26.3.1, SVG Export Plug-In . SVG Version: 6.00 Build 0)  -->
<svg version="1.1" xmlns="http://www.w3.org/2000/svg" xmlns:xlink="http://www.w3.org/1999/xlink" x="0px" y="0px" width="600px"
	 height="200px" viewBox="0 0 600 200" style="enable-background:new 0 0 600 200;" xml:space="preserve">
<style type="text/css">
	.st0{fill:#FFFFFF;}
</style>
<g id="Background_xA0_Image_1_">
</g>
<g id="Group_1_1_">
	<g id="νΈν…”ν¨μ¤">
		<g>
			<path class="st0" d="M47,80H28V66.6h92.2L117.6,80h-17.1c3.3,3.9,5.1,8.7,5.1,14.3c0,12.2-9.4,21.3-23.8,23.6v11.2h42.9
				l-2.7,14.3H23.8v-14.3h42.2v-11.2c-14.8-2.3-24-11.3-24-23.6C41.9,88.7,43.8,83.9,47,80z M53,43.2c5.1,2.8,16.1,4.3,22.6,4.3
				h22.7l-2.9,13.4H74.2c-7.9,0-21-1.5-26.1-4.3L53,43.2z M74,105.2c9.4,0,15.2-4.2,15.2-11.3c0-7.9-5.9-12.7-15.2-12.7
				c-9.1,0-14.8,4.7-14.8,12.7C59.2,101,64.8,105.2,74,105.2z"/>
			<path class="st0" d="M145.9,68.3h26l-0.1,13.4h-25.8V89c11.1,1.5,26.7-1.1,34.9-5l4.1,12.4c-11,5.5-36.9,7.6-54.7,5V48.6H177
				v13.7h-31.1V68.3z M225.3,140.1h-63.9c-0.7,3.6-0.9,4.8,4.3,4.8h66.1l-2.4,14.1h-67.2c-14.8,0-19.3-4.4-18.2-16.2l1.5-15.9h64.7
				c0.9-4.4,0.4-4.7-6.1-4.7h-58.8v-13.7h48.2c16.9-2.1,18-7.3,18-19.2V46.4H227v43.4c0,6.9-0.4,15.1-5.7,20.4
				c4.8,1.8,6.5,6.2,5.6,15.5L225.3,140.1z M176.3,68.2h13v-21h15.4v54.4h-15.4V81.7h-13V68.2z"/>
			<path class="st0" d="M333.8,157h-15.6V97.2h-8.4v57.3h-15.2v-22.3h-59.9v-13.4h9.5c-1-1.5-1.7-3.8-1.7-6.8V63.5h-7.8V49.7h55.6
				l-2.7,13.8h-5.4v48.6c0,3-0.9,5.3-2,6.8h14.3V47.1h15.2v35.8h8.4V46.4h15.6V157z M264.7,118.9c1.6-0.7,2.3-2.3,2.3-5.9V63.5h-9.5
				V113c0,3.9,0.9,5.2,2.8,5.9H264.7z"/>
			<path class="st0" d="M343.8,143.3v-14.3h101.1l-2.7,14.3H343.8z M356.5,108l-10.4-11.3l46.6-47.1c20.6,5.9,42.4,28.9,50.8,48.8
				l-13,8.2c-7.9-18.3-24.7-36.3-35-40.6L356.5,108z"/>
		</g>
	</g>
	<g id="Layer_1_copy_xA0_Image_1_">
		<path class="st0" d="M487.9,135.6c-0.3-0.6-1-1.6-1-1.6c-3-5-4-10.1-4-14.7c0-9.4,4.3-16.7,4.4-16.8c0,0,1.2-2,2-3.2
			c-1.3,0.6-3.4,1.5-3.4,1.5c-0.4,0.2-10.3,4.7-12.7,18.4c-0.2,1.5-0.4,2.9-0.4,4.2c0,3.5,0.9,6.4,2.9,8.5
			c3.9,4.3,10.2,3.9,10.4,3.9C486,135.7,487.2,135.6,487.9,135.6"/>
		<path class="st0" d="M460.7,104.8c12.1-27.9,50.6-18.4,50.9-18.3c0.5,0.1,1-0.1,1.3-0.5c0.1-0.2,0.2-0.4,0.2-0.6
			c0-0.3-0.1-0.6-0.3-0.8c-8.3-8.8-38-9.2-49.6-0.6c-11.4,8.4-4.8,20.4-4.5,20.9c0.2,0.4,0.6,0.6,1.1,0.6
			C460.2,105.5,460.6,105.2,460.7,104.8"/>
		<path class="st0" d="M535.5,99.9c0-0.1,0-0.1,0-0.2c-0.2-1.3-6-31.2-29-43.9c-10.8-5.9-19.9-7.5-27-4.6
			c-8.2,3.4-10.6,11.5-10.7,11.6c-0.1,0.4,0,0.8,0.3,1.1c0.3,0.3,0.7,0.4,1.1,0.3c44.9-9.5,62.4,34.2,63.1,36.1
			c0.2,0.6,0.8,0.9,1.4,0.7C535.1,100.8,535.5,100.4,535.5,99.9"/>
		<path class="st0" d="M544.1,49.6c-6.5-6.6-12.6-9.5-17.9-8.7c-6,0.9-8.7,6.2-8.7,6.3c-0.1,0.3-0.2,0.6,0,1l0.7,0.7
			c1.6,0.6,39.9,14.6,21,81.8c-0.2,0.6,0.1,1.2,0.7,1.4c0.5,0.2,1.2,0,1.4-0.5C542.5,129.3,572,77.7,544.1,49.6"/>
		<path class="st0" d="M577.4,74.3c-4.4-5.6-10.7-5.5-11-5.5c0,0-0.9,0.4-0.9,0.4l-0.2,0.9c10.8,63.4-45,84.6-47.4,85.5
			c-0.5,0.2-0.8,0.7-0.7,1.2c0.1,0.5,0.5,1,1,1c8.9,1.1,52-18.2,61.2-54.1C582.8,90.2,582.1,80.3,577.4,74.3"/>
	</g>
</g>
</svg>
