<?xml version="1.0" encoding="utf-8"?>
<!-- Generator: Adobe Illustrator 24.1.1, SVG Export Plug-In . SVG Version: 6.00 Build 0)  -->
<svg version="1.1" id="Layer_1" xmlns="http://www.w3.org/2000/svg" xmlns:xlink="http://www.w3.org/1999/xlink" x="0px" y="0px"
	 viewBox="0 0 24 24" style="enable-background:new 0 0 24 24;" xml:space="preserve">
<style type="text/css">
	.st0{fill:none;}
	.st1{fill:#2CAAE1;}
</style>
<g>
	<rect class="st0" width="24" height="24"/>
	<path class="st1" d="M12.43,5.44c-0.02,0.01-0.03,0.03-0.05,0.04L12,5.86l-0.39-0.39c-0.01-0.01-0.03-0.03-0.05-0.04
		C9.59,3.53,6.42,3.55,4.48,5.5c-1.95,1.95-1.97,5.12-0.06,7.1c0.01,0.01,0.02,0.03,0.04,0.04l7.21,7.21
		c0.09,0.09,0.21,0.14,0.34,0.14c0.13,0,0.25-0.05,0.34-0.14l7.21-7.21c0.01-0.01,0.03-0.03,0.04-0.04c1.91-1.98,1.89-5.15-0.06-7.1
		C17.58,3.55,14.41,3.53,12.43,5.44z M18.87,11.97c-0.01,0.01-0.02,0.02-0.03,0.04L12,18.84L5.16,12c-0.01-0.01-0.02-0.02-0.03-0.04
		c-1.58-1.6-1.58-4.2,0.02-5.8c1.59-1.59,4.19-1.6,5.8-0.02c0.01,0.01,0.03,0.02,0.04,0.04l0.68,0.68c0.09,0.09,0.21,0.14,0.34,0.14
		c0.13,0,0.25-0.05,0.34-0.14l0.68-0.68c0.01-0.01,0.03-0.02,0.04-0.04c1.61-1.58,4.21-1.57,5.8,0.02
		C20.45,7.76,20.45,10.36,18.87,11.97z"/>
</g>
</svg>
