<?xml version="1.0" encoding="utf-8"?>
<!-- Generator: Adobe Illustrator 24.1.1, SVG Export Plug-In . SVG Version: 6.00 Build 0)  -->
<svg version="1.1" id="Layer_1" xmlns="http://www.w3.org/2000/svg" xmlns:xlink="http://www.w3.org/1999/xlink" x="0px" y="0px"
	 viewBox="0 0 24 24" style="enable-background:new 0 0 24 24;" xml:space="preserve">
<style type="text/css">
	.st0{fill:none;}
	.st1{fill:#2CAAE1;}
</style>
<g>
	<rect class="st0" width="24" height="24"/>
	<path class="st1" d="M16.73,16.06c1.28-1.44,1.98-3.26,1.98-5.2c0-2.1-0.82-4.07-2.3-5.55c-3.06-3.06-8.05-3.06-11.11,0
		c-3.06,3.06-3.06,8.05,0,11.11c1.53,1.53,3.54,2.3,5.56,2.3c1.86,0,3.72-0.67,5.2-1.98l4.14,4.14c0.09,0.09,0.21,0.14,0.33,0.14
		c0.12,0,0.24-0.05,0.33-0.14c0.19-0.19,0.19-0.48,0-0.67L16.73,16.06z M5.97,15.74c-2.69-2.69-2.69-7.08,0-9.77
		c1.35-1.35,3.12-2.02,4.88-2.02c1.77,0,3.54,0.67,4.89,2.02c1.3,1.3,2.02,3.04,2.02,4.88s-0.72,3.58-2.02,4.88
		C13.05,18.43,8.66,18.43,5.97,15.74z"/>
</g>
</svg>
