<?xml version="1.0" encoding="utf-8"?>
<!-- Generator: Adobe Illustrator 24.1.1, SVG Export Plug-In . SVG Version: 6.00 Build 0)  -->
<svg version="1.1" id="Layer_1" xmlns="http://www.w3.org/2000/svg" xmlns:xlink="http://www.w3.org/1999/xlink" x="0px" y="0px"
	 viewBox="0 0 24 24" style="enable-background:new 0 0 24 24;" xml:space="preserve">
<style type="text/css">
	.st0{fill:none;}
	.st1{fill:#2CAAE1;}
</style>
<g>
	<rect class="st0" width="24" height="24"/>
	<path class="st1" d="M20.65,9.63l-5.27-1.42L12.4,3.63c-0.17-0.27-0.62-0.27-0.79,0L8.62,8.21L3.35,9.63
		C3.2,9.67,3.07,9.79,3.02,9.94C2.97,10.09,3,10.26,3.1,10.38l3.43,4.25l-0.28,5.45c-0.01,0.16,0.06,0.31,0.19,0.41
		c0.13,0.1,0.3,0.12,0.45,0.06L12,18.6l5.1,1.95c0.05,0.02,0.11,0.03,0.17,0.03c0.1,0,0.2-0.03,0.28-0.09
		c0.13-0.09,0.2-0.25,0.19-0.41l-0.28-5.45l3.43-4.25c0.1-0.12,0.13-0.29,0.08-0.44C20.93,9.79,20.8,9.67,20.65,9.63z M16.61,14.18
		c-0.07,0.09-0.11,0.21-0.1,0.32l0.25,4.91l-4.59-1.76c-0.11-0.04-0.23-0.04-0.34,0l-4.59,1.76l0.25-4.91
		c0.01-0.12-0.03-0.23-0.1-0.32L4.3,10.35l4.75-1.28c0.11-0.03,0.21-0.1,0.27-0.2L12,4.76l2.68,4.12c0.06,0.1,0.16,0.17,0.27,0.2
		l4.75,1.28L16.61,14.18z"/>
</g>
</svg>
