<?xml version="1.0" encoding="utf-8"?>
<!-- Generator: Adobe Illustrator 24.1.1, SVG Export Plug-In . SVG Version: 6.00 Build 0)  -->
<svg version="1.1" id="Layer_1" xmlns="http://www.w3.org/2000/svg" xmlns:xlink="http://www.w3.org/1999/xlink" x="0px" y="0px"
	 viewBox="0 0 24 24" style="enable-background:new 0 0 24 24;" xml:space="preserve">
<style type="text/css">
	.st0{fill:none;}
	.st1{fill:#DDDDDD;}
</style>
<g>
	<rect class="st0" width="24" height="24"/>
	<path class="st1" d="M20.22,9.24H18.9l-0.67-2.51C18.04,6,17.37,5.49,16.62,5.49H7.37C6.62,5.49,5.95,6,5.76,6.73L5.1,9.24H3.78
		C3.34,9.24,3,9.62,3,10.11v0.53c0,0.49,0.34,0.87,0.78,0.87l0,0c0,0.04-0.01,0.08-0.01,0.12v4.77H4.8v0.43
		c0,0.92,0.75,1.67,1.67,1.67h0.6c0.92,0,1.67-0.75,1.67-1.67V16.4h6.55v0.43c0,0.92,0.75,1.67,1.67,1.67h0.6
		c0.92,0,1.67-0.75,1.67-1.67V16.4h1.03v-4.77c0-0.04-0.01-0.08-0.01-0.12l0,0c0.44,0,0.78-0.38,0.78-0.87v-0.53
		C21,9.62,20.66,9.24,20.22,9.24z M6.68,6.98c0.08-0.31,0.37-0.53,0.69-0.53h9.25c0.33,0,0.61,0.22,0.69,0.53l0.8,2.99h-0.4
		c-0.22-1.18-1.26-2.07-2.5-2.07s-2.27,0.89-2.5,2.07H5.88L6.68,6.98z M16.74,9.97h-3.03c0.2-0.65,0.8-1.12,1.52-1.12
		S16.54,9.32,16.74,9.97z M3.95,10.57v-0.38h0.67c-0.17,0.1-0.33,0.23-0.45,0.38H3.95z M7.78,16.83c0,0.4-0.32,0.72-0.72,0.72h-0.6
		c-0.4,0-0.72-0.32-0.72-0.72V16.4h2.04C7.78,16.4,7.78,16.83,7.78,16.83z M18.26,16.83c0,0.4-0.32,0.72-0.72,0.72h-0.6
		c-0.4,0-0.72-0.32-0.72-0.72V16.4h2.04C18.26,16.4,18.26,16.83,18.26,16.83z M19.21,15.46h-3.93H8.73H4.79H4.71v-1.8H8.6v-0.95
		H4.71v-1.08c0-0.4,0.32-0.72,0.72-0.72h13.13c0.4,0,0.72,0.32,0.72,0.72v1.08H15.4v0.95h3.88v1.8H19.21z M19.38,10.19h0.67v0.38
		h-0.22C19.71,10.41,19.55,10.29,19.38,10.19z"/>
</g>
</svg>
