<?xml version="1.0" encoding="utf-8"?>
<!-- Generator: Adobe Illustrator 24.1.1, SVG Export Plug-In . SVG Version: 6.00 Build 0)  -->
<svg version="1.1" id="Layer_1" xmlns="http://www.w3.org/2000/svg" xmlns:xlink="http://www.w3.org/1999/xlink" x="0px" y="0px"
	 viewBox="0 0 24 24" style="enable-background:new 0 0 24 24;" xml:space="preserve">
<style type="text/css">
	.st0{fill:none;}
	.st1{fill:#2CAAE1;}
</style>
<g>
	<rect class="st0" width="24" height="24"/>
	<path class="st1" d="M17.72,3.76c-0.7,0.09-1.39,0.41-1.85,0.88L13.9,6.73L8.07,4.65c-0.16-0.06-0.34-0.02-0.47,0.1L6.01,6.35
		c-0.1,0.1-0.15,0.24-0.13,0.37c0.02,0.14,0.1,0.26,0.22,0.33l4.87,2.79l-3.64,3.87l-2.32-0.75c-0.16-0.05-0.34-0.01-0.45,0.11
		L3.4,14.23c-0.1,0.1-0.15,0.24-0.13,0.38c0.02,0.14,0.11,0.26,0.23,0.33l3.21,1.71L5.67,17.7c-0.17,0.17-0.17,0.46,0,0.63
		c0.09,0.09,0.2,0.13,0.32,0.13s0.23-0.04,0.32-0.13l1.05-1.05l1.71,3.22c0.07,0.12,0.19,0.21,0.33,0.23c0.02,0,0.04,0.01,0.07,0.01
		c0.12,0,0.23-0.05,0.32-0.13l1.15-1.15c0.12-0.12,0.16-0.29,0.11-0.45l-0.75-2.32l3.87-3.64l2.79,4.87
		c0.07,0.12,0.19,0.2,0.33,0.22c0.02,0,0.04,0,0.06,0c0.12,0,0.23-0.05,0.32-0.13l1.59-1.59c0.12-0.12,0.16-0.3,0.1-0.47l-2.08-5.82
		l2.11-1.98c0.46-0.46,0.78-1.13,0.87-1.85c0.09-0.79-0.11-1.48-0.58-1.95C19.2,3.86,18.51,3.65,17.72,3.76z M7.06,6.56l0.98-0.98
		l5.19,1.85L11.6,9.17L7.06,6.56z M18.41,15.96l-0.98,0.98l-2.61-4.54l1.73-1.63L18.41,15.96z M19.36,6.17
		c-0.07,0.51-0.3,1-0.6,1.31l-2.31,2.17c0,0,0,0,0,0l-2.49,2.34c0,0,0,0.01-0.01,0.01l-4.49,4.21c-0.13,0.12-0.17,0.3-0.12,0.46
		l0.75,2.33l-0.53,0.53l-1.55-2.92l1.1-1.1c0.17-0.17,0.17-0.46,0-0.63s-0.46-0.17-0.63,0l-1.1,1.1l-2.92-1.55l0.53-0.53l2.33,0.75
		c0.16,0.05,0.35,0.01,0.46-0.12l4.22-4.49c0,0,0,0,0.01,0l2.34-2.49c0,0,0,0,0,0l2.15-2.29c0.32-0.32,0.81-0.55,1.32-0.61
		c0.51-0.06,0.94,0.05,1.21,0.32C19.4,5.32,19.39,5.88,19.36,6.17z"/>
</g>
</svg>
