<?xml version="1.0" encoding="utf-8"?>
<!-- Generator: Adobe Illustrator 24.1.1, SVG Export Plug-In . SVG Version: 6.00 Build 0)  -->
<svg version="1.1" id="Layer_1" xmlns="http://www.w3.org/2000/svg" xmlns:xlink="http://www.w3.org/1999/xlink" x="0px" y="0px"
	 viewBox="0 0 24 24" style="enable-background:new 0 0 24 24;" xml:space="preserve">
<style type="text/css">
	.st0{fill:none;}
	.st1{fill:#2CAAE1;}
</style>
<g>
	<rect class="st0" width="24" height="24"/>
	<path class="st1" d="M18.6,9.56h-0.41V7.59c0-0.9-0.73-1.63-1.63-1.63H7.44c-0.9,0-1.63,0.73-1.63,1.63v1.97H5.4
		c-1.32,0-2.4,1.08-2.4,2.4v1.69v1.93c0,0.26,0.21,0.47,0.47,0.47h1.3v1.31c0,0.26,0.21,0.47,0.47,0.47c0.26,0,0.47-0.21,0.47-0.47
		v-1.31h12.56v1.31c0,0.26,0.21,0.47,0.47,0.47c0.26,0,0.47-0.21,0.47-0.47v-1.31h1.3c0.26,0,0.47-0.21,0.47-0.47v-1.93v-1.69
		C21,10.63,19.92,9.56,18.6,9.56z M6.76,7.59c0-0.38,0.31-0.68,0.68-0.68h9.12c0.38,0,0.68,0.31,0.68,0.68v1.97h-0.52V8.39
		c0-0.47-0.39-0.86-0.86-0.86h-2.71c-0.47,0-0.86,0.39-0.86,0.86v1.17h-0.59V8.39c0-0.47-0.39-0.86-0.86-0.86H8.14
		c-0.47,0-0.86,0.39-0.86,0.86v1.17H6.76V7.59z M15.77,9.56h-2.53V8.47h2.53V9.56z M10.76,9.56H8.23V8.47h2.53V9.56z M3.95,11.96
		c0-0.8,0.65-1.45,1.45-1.45h0.88h1.47h3.48h1.53h3.48h1.47h0.88c0.8,0,1.45,0.65,1.45,1.45v1.21H3.95V11.96z M20.05,15.1H3.95
		v-0.99h16.11V15.1z"/>
</g>
</svg>
