<?xml version="1.0" encoding="utf-8"?>
<!-- Generator: Adobe Illustrator 24.1.1, SVG Export Plug-In . SVG Version: 6.00 Build 0)  -->
<svg version="1.1" id="Layer_1" xmlns="http://www.w3.org/2000/svg" xmlns:xlink="http://www.w3.org/1999/xlink" x="0px" y="0px"
	 viewBox="0 0 24 24" style="enable-background:new 0 0 24 24;" xml:space="preserve">
<style type="text/css">
	.st0{fill:none;}
	.st1{fill:#2CAAE1;}
</style>
<g>
	<rect class="st0" width="24" height="24"/>
	<path class="st1" d="M20.86,3.14c-0.19-0.19-0.48-0.19-0.67,0L12,11.33L3.81,3.14c-0.19-0.19-0.48-0.19-0.67,0
		c-0.19,0.19-0.19,0.48,0,0.67L11.33,12l-8.19,8.19c-0.19,0.19-0.19,0.48,0,0.67C3.23,20.95,3.35,21,3.47,21s0.24-0.05,0.33-0.14
		L12,12.67l8.19,8.19C20.28,20.95,20.4,21,20.53,21c0.12,0,0.24-0.05,0.33-0.14c0.19-0.19,0.19-0.48,0-0.67L12.67,12l8.19-8.19
		C21.05,3.62,21.05,3.32,20.86,3.14z"/>
</g>
</svg>
