<?xml version="1.0" encoding="utf-8"?>
<!-- Generator: Adobe Illustrator 24.1.1, SVG Export Plug-In . SVG Version: 6.00 Build 0)  -->
<svg version="1.1" id="Layer_1" xmlns="http://www.w3.org/2000/svg" xmlns:xlink="http://www.w3.org/1999/xlink" x="0px" y="0px"
	 viewBox="0 0 24 24" style="enable-background:new 0 0 24 24;" xml:space="preserve">
<style type="text/css">
	.st0{fill:none;}
	.st1{fill:#DDDDDD;}
</style>
<g>
	<rect x="0" y="0" transform="matrix(0.9999 -0.0102 0.0102 0.9999 -0.1218 0.123)" class="st0" width="24" height="24"/>
	<path class="st1" d="M18.58,9.49h-0.41l-0.02-1.97c-0.01-0.9-0.75-1.62-1.65-1.61l-9.12,0.1c-0.9,0.01-1.62,0.75-1.61,1.65
		l0.02,1.97H5.38C4.05,9.64,2.99,10.73,3,12.05l0.01,1.21l0.01,0.95l0.02,1.93l0.58-0.01l0.02,1.98l1.89-0.02l-0.02-1.98l13.06-0.13
		l0.02,1.98l1.89-0.02l-0.02-1.98l0.58-0.01l-0.02-1.93l-0.01-0.95L21,11.87C20.99,10.55,19.9,9.48,18.58,9.49z M6.71,7.65
		c0-0.38,0.3-0.68,0.67-0.69l9.12-0.09c0.38,0,0.68,0.3,0.69,0.67l0.02,1.97l-0.53,0.01l-0.01-1.17c0-0.47-0.39-0.85-0.87-0.85
		l-2.71,0.03c-0.47,0-0.86,0.39-0.85,0.87l0.01,1.17l-0.59,0.01l-0.01-1.17c0-0.47-0.39-0.85-0.87-0.85L8.1,7.57
		c-0.47,0-0.86,0.39-0.85,0.87l0.01,1.17l-0.53,0L6.71,7.65z M15.75,9.52l-2.53,0.03l-0.01-1.08l2.53-0.03L15.75,9.52z M10.73,9.57
		L8.2,9.6L8.19,8.52l2.53-0.03L10.73,9.57z M20.08,15.02l-1.52,0.02L5.5,15.17l-1.52,0.02L3.97,14.2l16.1-0.16L20.08,15.02z
		 M3.96,13.26l-0.01-1.21c-0.01-0.8,0.64-1.46,1.44-1.47H5.8l1.47-0.01l4.42-0.04l0.59-0.01l4.42-0.04l1.47-0.01h0.41
		c0.8-0.01,1.46,0.64,1.47,1.44l0.01,1.21L3.96,13.26z"/>
</g>
</svg>
