<?xml version="1.0" encoding="utf-8"?>
<!-- Generator: Adobe Illustrator 24.1.1, SVG Export Plug-In . SVG Version: 6.00 Build 0)  -->
<svg version="1.1" id="Layer_1" xmlns="http://www.w3.org/2000/svg" xmlns:xlink="http://www.w3.org/1999/xlink" x="0px" y="0px"
	 viewBox="0 0 24 24" style="enable-background:new 0 0 24 24;" xml:space="preserve">
<style type="text/css">
	.st0{fill:none;}
	.st1{fill:#2CAAE1;}
</style>
<g>
	<rect y="0" class="st0" width="24" height="24"/>
	<g>
		<path class="st1" d="M20.53,6.79H3.47C3.21,6.79,3,7,3,7.26c0,0.26,0.21,0.47,0.47,0.47h17.05c0.26,0,0.47-0.21,0.47-0.47
			C21,7,20.79,6.79,20.53,6.79z"/>
		<path class="st1" d="M20.53,11.53H3.47C3.21,11.53,3,11.74,3,12c0,0.26,0.21,0.47,0.47,0.47h17.05c0.26,0,0.47-0.21,0.47-0.47
			C21,11.74,20.79,11.53,20.53,11.53z"/>
		<path class="st1" d="M20.53,16.26H3.47C3.21,16.26,3,16.48,3,16.74s0.21,0.47,0.47,0.47h17.05c0.26,0,0.47-0.21,0.47-0.47
			S20.79,16.26,20.53,16.26z"/>
	</g>
</g>
</svg>
