<?xml version="1.0" encoding="utf-8"?>
<!-- Generator: Adobe Illustrator 26.3.1, SVG Export Plug-In . SVG Version: 6.00 Build 0)  -->
<svg version="1.1" id="레이어_1" xmlns="http://www.w3.org/2000/svg" xmlns:xlink="http://www.w3.org/1999/xlink" x="0px"
	 y="0px" width="536px" height="121px" viewBox="0 0 536 121" style="enable-background:new 0 0 536 121;" xml:space="preserve">
<style type="text/css">
	.st0{fill:#FFFFFF;}
</style>
<g>
	<path class="st0" d="M95.2,100L95.2,100c14.7-13.7,15.9-36.2,2.7-50.5L72,21.7C58.8,7.5,36.1,7,21.4,20.7l0,0
		C6.7,34.4,5.5,56.9,18.7,71.2L44.7,99C57.9,113.3,80.5,113.7,95.2,100z"/>
	<path class="st0" d="M50.7,100L50.7,100C36,86.4,34.8,63.8,48,49.6l25.9-27.9c13.2-14.2,35.8-14.6,50.5-1h0
		c14.7,13.7,15.9,36.2,2.7,50.5L101.2,99C88,113.3,65.4,113.7,50.7,100z"/>
</g>
<g>
	<g>
		<polygon class="st0" points="241.1,83.2 277.1,83.2 277.1,106.7 295.4,106.7 295.4,83.2 331.4,83.2 331.4,69.9 241.1,69.9 		"/>
		<path class="st0" d="M326.8,29.2V15.9h-62.8v0c-1.8,0.1-18.9,1-18.9,19v25.5h81.6V47.1h-63.3v-18H326.8z"/>
	</g>
	<g>
		<polygon class="st0" points="201.2,76 182.6,76 182.6,93.3 146.8,93.3 146.8,106.6 236.8,106.6 236.8,93.3 201.2,93.3 		"/>
		<g>
			<path class="st0" d="M195.4,16h-25.3v0c-1.8,0.1-18.9,1-18.9,19.1v9v26.7H232V16H195.4z M213.7,57.5h-44.1V29.4h44.1V57.5z"/>
		</g>
	</g>
	<g>
		<polygon class="st0" points="336.5,86.5 372.4,86.5 372.4,106.7 390.7,106.7 390.7,86.5 426.8,86.5 426.8,73.3 336.5,73.3 		"/>
		<path class="st0" d="M422,28.9V16h-62.3v0c-1.8,0-18.9,1-18.9,18.9v31.4H422V53.6h-62.9v-6.2h61.7V35.1h-61.7v-6.2H422z"/>
	</g>
	<path class="st0" d="M523.7,30.1v-0.4C522.4,13,505.5,13,505.5,13v32.1h-9.2c-1.3-9.8-4.3-17.3-9.3-22.5
		c-5.4-5.6-12.6-8.4-21.8-8.4c-10.1,0-18,3.4-23.5,10.3c-5.5,6.9-8.3,17.1-8.3,30.7c0,13.6,2.7,23.8,8.3,30.7
		c5.5,6.9,13.3,10.3,23.5,10.3c9.2,0,16.5-2.8,21.9-8.5c5.4-5.7,8.6-14.2,9.5-25.4c0.1-0.8,0.2-1.6,0.2-2.4h8.7v46.9h18.2
		L523.7,30.1L523.7,30.1z M475.5,75c-2.4,4.5-5.9,6.7-10.3,6.7c-4.4,0-7.8-2.2-10.2-6.7c-2.4-4.5-3.7-11.1-3.7-19.8
		c0-8.7,1.2-15.3,3.7-19.8c2.4-4.5,5.8-6.7,10.2-6.7c4.4,0,7.8,2.2,10.3,6.7c2.4,4.5,3.6,11.1,3.6,19.8
		C479.1,63.9,477.9,70.5,475.5,75z"/>
</g>
</svg>
