<?xml version="1.0" encoding="utf-8"?>
<!-- Generator: Adobe Illustrator 24.2.1, SVG Export Plug-In . SVG Version: 6.00 Build 0)  -->
<svg version="1.1" id="Layer_1" xmlns="http://www.w3.org/2000/svg" xmlns:xlink="http://www.w3.org/1999/xlink" x="0px" y="0px"
	 viewBox="0 0 640 242" style="enable-background:new 0 0 640 242;" xml:space="preserve">
<style type="text/css">
	.st0{fill:#FFFFFF;}
	.st1{fill-rule:evenodd;clip-rule:evenodd;fill:#FFFFFF;}
</style>
<g>
	<path class="st0" d="M252.6,84.5c-8.7,0-16.4,3.9-21.7,10.1v-6.5h-21.7v106.1h24.1v-37.1c5.3,4.4,12,7,19.3,7
		c21.3,0,38.6-17.8,38.6-39.8C291.2,102.3,273.9,84.5,252.6,84.5z M291.2,124.3c0-22-17.3-39.8-38.6-39.8 M250.2,141.9
		c-9.3,0-16.9-7.9-16.9-17.6c0-9.7,7.6-17.6,16.9-17.6c9.3,0,16.9,7.9,16.9,17.6C267.1,134,259.5,141.9,250.2,141.9z"/>
	
		<ellipse transform="matrix(0.7517 -0.6595 0.6595 0.7517 -20.0824 245.883)" class="st0" cx="316.5" cy="149.6" rx="14.5" ry="14.5"/>
	<circle class="st1" cx="180.3" cy="64.5" r="13.5"/>
	<rect x="168.2" y="88.1" class="st1" width="24.1" height="72.3"/>
	<polygon class="st1" points="26,54.4 26,74.6 57.3,74.6 57.3,160.5 81.4,160.5 81.4,74.6 112.8,74.6 112.8,54.4 	"/>
	<g>
		<path class="st0" d="M381.6,141.9c-9.3,0-16.9-7.9-16.9-17.6c0-9.7,7.6-17.6,16.9-17.6c4.8,0,9.1,2.1,12.2,5.4l16-16
			c-7.2-7.2-17.1-11.6-28.1-11.6c-22,0-39.8,17.8-39.8,39.8c0,22,17.8,39.8,39.8,39.8c11,0,20.9-4.5,28.1-11.6l-16-16
			C390.7,139.8,386.3,141.9,381.6,141.9z"/>
	</g>
	<path class="st1" d="M592.6,84.5c-9.8,0-17.7,3.7-22.5,11.8c-4.3-7.6-12.3-11.8-21.6-11.8c-9.5,0-16.6,4.4-21.1,11.8v-8.2h-21.7
		V113v47.5h24.1v-45.1c0-6.1,4.7-11.1,10.6-11.1c5.9,0,10.6,5,10.6,11.1v45.1h22.7l0-45.1c0-6.1,4.7-11.1,10.6-11.1
		c5.9,0,10.6,5,10.6,11.1v45.1H619v-49.6C619,94.5,608.7,84.5,592.6,84.5z"/>
	<path class="st0" d="M453.9,84.5c-22,0-39.8,17.8-39.8,39.8c0,22,17.8,39.8,39.8,39.8c22,0,39.8-17.8,39.8-39.8
		C493.7,102.3,475.8,84.5,453.9,84.5z M453.9,141.9c-9.3,0-16.9-7.9-16.9-17.6c0-9.7,7.6-17.6,16.9-17.6c9.3,0,16.9,7.9,16.9,17.6
		C470.8,134,463.2,141.9,453.9,141.9z"/>
	<path class="st0" d="M151.4,87.8c-9.1,0-17.1,4.7-21.7,11.8V88.1H108v36.2v36.2h24.1h0.1v-30.3c0-12.5,9.1-20.2,20.2-20.2
		c1.3,0,2.5,0.2,3.8,0.4V88.1C154.6,87.9,153,87.8,151.4,87.8z"/>
</g>
</svg>
