<?xml version="1.0" encoding="utf-8"?>
<!-- Generator: Adobe Illustrator 24.2.1, SVG Export Plug-In . SVG Version: 6.00 Build 0)  -->
<svg version="1.1" id="Layer_1" xmlns="http://www.w3.org/2000/svg" xmlns:xlink="http://www.w3.org/1999/xlink" x="0px" y="0px"
	 viewBox="0 0 640 242" style="enable-background:new 0 0 640 242;" xml:space="preserve">
<style type="text/css">
	.st0{fill-rule:evenodd;clip-rule:evenodd;fill:#FFFFFF;}
</style>
<g>
	<path class="st0" d="M284.8,77.6c5.2,0,9.5-4.2,9.5-9.5c0-5.2-4.2-9.5-9.5-9.5c-5.2,0-9.5,4.2-9.5,9.5
		C275.4,73.4,279.6,77.6,284.8,77.6z M293.7,82.7c0-0.5-0.4-0.8-0.9-0.8h-15.9c-0.5,0-0.9,0.4-0.9,0.8v62.2c0,0.5,0.4,0.8,0.9,0.8
		h15.9c0.5,0,0.9-0.4,0.9-0.8V82.7z M222.7,62.1c0.5,0,0.8,0.4,0.8,0.8v11.9c0,0.5-0.4,0.8-0.8,0.8h-22.1v69.3
		c0,0.5-0.4,0.8-0.8,0.8h-15.1c-0.5,0-0.8-0.4-0.8-0.8V75.6h-22.1c-0.5,0-0.8-0.4-0.8-0.8V62.9c0-0.5,0.4-0.8,0.8-0.8H222.7z
		 M249.7,83.8c-3.3,1.9-6,4.6-8.1,8v-9.1c0-0.5-0.4-0.8-0.8-0.8h-14.5c-0.5,0-0.8,0.4-0.8,0.8v62.2c0,0.5,0.4,0.8,0.8,0.8h14.5
		c0.5,0,0.8-0.4,0.8-0.8v-31c0-5.9,1.3-10.1,3.8-12.4c2.6-2.4,6.5-3.6,11.5-3.6h5.4c0.5,0,0.8-0.4,0.8-0.8V81.7
		c0-0.5-0.4-0.8-0.8-0.8C258.1,81,252.8,82,249.7,83.8z M480.2,126c0,2.2,0.5,3.7,1.5,4.7c1.1,0.9,2.8,1.4,5.3,1.4h6.7
		c0.5,0,0.8,0.4,0.8,0.8v12c0,0.5-0.4,0.8-0.8,0.8h-9.3c-13.6,0-20.4-6.6-20.4-19.8V95.1h-6.8c-0.5,0-0.8-0.4-0.8-0.8V82.7
		c0-0.5,0.4-0.8,0.8-0.8h6.8V68.5c0-0.5,0.4-0.8,0.8-0.8h14.6c0.5,0,0.8,0.4,0.8,0.8v13.3h13.5c0.5,0,0.8,0.4,0.8,0.8v11.6
		c0,0.5-0.4,0.8-0.8,0.8h-13.5V126z M618.2,132.4h-28l28.5-37.1c0.2-0.3,0.3-0.6,0.3-1V82.7c0-0.5-0.4-0.8-0.8-0.8h-45.4
		c-0.5,0-0.8,0.4-0.8,0.8v11.6c0,0.5,0.4,0.8,0.8,0.8h26.9l-27.6,37.1c-0.2,0.3-0.3,0.6-0.3,1v11.7c0,0.5,0.4,0.8,0.8,0.8h45.5
		c0.5,0,0.8-0.4,0.8-0.8v-11.6C619,132.8,618.6,132.4,618.2,132.4z M567.1,113.8c0,18.2-14.8,33-33,33c-18.2,0-33-14.8-33-33
		c0-18.2,14.8-33,33-33C552.3,80.8,567.1,95.6,567.1,113.8z M551.4,113.8c0,9.5-7.7,17.3-17.3,17.3c-9.5,0-17.3-7.7-17.3-17.3
		c0-9.5,7.7-17.3,17.3-17.3C543.7,96.5,551.4,104.2,551.4,113.8z M400.6,144.8v-2.8c4.9,2.9,10.7,4.6,16.8,4.6c18.2,0,33-14.8,33-33
		c0-18.2-14.8-33-33-33c-6.1,0-11.9,1.7-16.8,4.6V62.9c0-0.5-0.4-0.8-0.8-0.8h-14.5c-0.5,0-0.8,0.4-0.8,0.8v82
		c0,0.5,0.4,0.8,0.8,0.8h14.5C400.2,145.7,400.6,145.3,400.6,144.8z M416.6,131c9.5,0,17.3-7.7,17.3-17.3s-7.7-17.3-17.3-17.3
		c-9.5,0-17.3,7.7-17.3,17.3S407,131,416.6,131z M342.6,146.7c18.2,0,33-14.8,33-33c0-18.2-14.8-33-33-33c-6.1,0-11.9,1.7-16.8,4.6
		v-2.8c0-0.5-0.4-0.8-0.8-0.8h-14.5c-0.5,0-0.8,0.4-0.8,0.8V167c0,0.5,0.4,0.8,0.8,0.8h14.5c0.5,0,0.8-0.4,0.8-0.8v-24.9
		C330.7,145,336.4,146.7,342.6,146.7z M359,113.8c0,9.5-7.7,17.3-17.3,17.3s-17.3-7.7-17.3-17.3s7.7-17.3,17.3-17.3
		S359,104.2,359,113.8z"/>
	<path class="st0" d="M73.7,154.3L73.7,154.3v-49.9c0-0.5,0.1-0.9,0.3-1.4c0.8-1.8,3.1-2.7,5-1.5l63.9,41.4c2.1,1.3,2.1,4.3,0,5.7
		L79,190.2c-2.3,1.5-5.3-0.1-5.3-2.8V154.3z M81.9,97.2l41.9,27.2V89.1c0-1-0.4-1.9-1.1-2.6L89.3,55.8c-1.1-1-2.7-1.2-4-0.6
		L22.6,86.6c-1.2,0.6-2,1.8-2,3.2v61c0,2,1.6,3.5,3.5,3.5h44.1v-49.9C68.3,97.5,76.1,93.4,81.9,97.2z"/>
</g>
</svg>
