<?xml version="1.0" encoding="utf-8"?>
<!-- Generator: Adobe Illustrator 24.2.1, SVG Export Plug-In . SVG Version: 6.00 Build 0)  -->
<svg version="1.1" id="Layer_1" xmlns="http://www.w3.org/2000/svg" xmlns:xlink="http://www.w3.org/1999/xlink" x="0px" y="0px"
	 viewBox="0 0 640 242" style="enable-background:new 0 0 640 242;" xml:space="preserve">
<style type="text/css">
	.st0{fill:#FFFFFF;}
</style>
<path class="st0" d="M325.7,105.4v48.2h-21.7v-46.4c0-9.6-6.2-16.9-17.5-16.9c-10.2,0-17.5,7.3-17.5,17.1l0,46.2h-21.7V71.5h20.8
	v9.7c5.2-8.1,16-10.6,23.5-10.6C316.6,70.6,325.7,87,325.7,105.4 M119.8,71.5l-21.5,51.5L76.3,71.5H50.9l35.8,77.1l-20.5,45.8h24.5
	l54.5-122.8H119.8z M424.3,113.2c0,23.5-19,42.5-42.5,42.5c-23.5,0-42.5-19-42.5-42.5s19-42.5,42.5-42.5
	C405.3,70.7,424.3,89.7,424.3,113.2 M402.9,113.2c0-11.7-9.5-21.1-21.1-21.1c-11.7,0-21.1,9.5-21.1,21.1c0,11.7,9.5,21.1,21.1,21.1
	C393.5,134.3,402.9,124.8,402.9,113.2 M230.1,115.6L230.1,115.6v38.1h-19.6v-8.5c-6.4,6.5-14.7,10.4-23.6,10.4
	c-23.5,0-42.5-19-42.5-42.5c0-23.5,19-42.5,42.5-42.5C210.4,70.5,230.1,89.1,230.1,115.6 M208.1,113.2c0-11.7-9.5-21.1-21.1-21.1
	c-11.7,0-21.1,9.5-21.1,21.1c0,11.7,9.5,21.1,21.1,21.1C198.6,134.3,208.1,124.8,208.1,113.2 M599,115.6v38.1h-19.6v-8.5
	c-6.4,6.5-14.7,10.4-23.6,10.4c-23.5,0-42.5-19-42.5-42.5c0-23.5,19-42.5,42.5-42.5C579.3,70.5,599,89.1,599,115.6L599,115.6z
	 M577,113.2c0-11.7-9.5-21.1-21.1-21.1c-11.7,0-21.1,9.5-21.1,21.1c0,11.7,9.5,21.1,21.1,21.1C567.5,134.3,577,124.8,577,113.2
	 M438.2,153.6h22.1V34.4h-22.1V153.6z M478,152.5c0,15.2-9.2,20.2-17.6,20.2c0,0,0,21.8,0,21.8c12.6,0,39.3-3.6,39.4-41.7h0V71.5
	H478V152.5z"/>
</svg>
