<?xml version="1.0" encoding="utf-8"?>
<!-- Generator: Adobe Illustrator 24.1.1, SVG Export Plug-In . SVG Version: 6.00 Build 0)  -->
<svg version="1.1" id="Layer_1" xmlns="http://www.w3.org/2000/svg" xmlns:xlink="http://www.w3.org/1999/xlink" x="0px" y="0px"
	 viewBox="0 0 24 24" style="enable-background:new 0 0 24 24;" xml:space="preserve">
<style type="text/css">
	.st0{fill:none;}
	.st1{fill:#2CAAE1;}
</style>
<g>
	<rect class="st0" width="24" height="24"/>
	<g>
		<path class="st1" d="M13.96,20.87c-0.19,0-0.37-0.12-0.45-0.31l-0.4-1.1c-0.74,0.11-1.5,0.11-2.24,0l-0.4,1.1
			c-0.04,0.12-0.13,0.21-0.25,0.27c-0.11,0.05-0.24,0.06-0.36,0.02L8,20.16c-0.12-0.04-0.21-0.13-0.27-0.25
			c-0.05-0.11-0.06-0.24-0.02-0.36l0.4-1.1c-0.64-0.39-1.21-0.87-1.71-1.44L5.39,17.6c-0.23,0.13-0.52,0.05-0.65-0.17l-1-1.73
			c-0.13-0.23-0.05-0.52,0.17-0.65l1.02-0.59c-0.24-0.71-0.37-1.45-0.39-2.2l-1.15-0.2c-0.26-0.05-0.43-0.29-0.38-0.55l0.35-1.97
			c0.02-0.12,0.09-0.23,0.19-0.31c0.1-0.07,0.23-0.1,0.35-0.08l1.15,0.2c0.27-0.7,0.65-1.34,1.12-1.93l-0.76-0.9
			C5.34,6.44,5.3,6.31,5.31,6.19c0.01-0.12,0.07-0.24,0.17-0.32l1.53-1.28c0.2-0.17,0.5-0.14,0.67,0.06l0.76,0.9
			c0.66-0.36,1.36-0.62,2.1-0.76V3.6c0-0.26,0.21-0.47,0.47-0.47h2c0.26,0,0.47,0.21,0.47,0.47v1.18c0.74,0.15,1.44,0.4,2.1,0.76
			l0.76-0.9c0.17-0.2,0.47-0.23,0.67-0.06l1.53,1.28c0.2,0.17,0.23,0.47,0.06,0.67l-0.76,0.9c0.47,0.59,0.85,1.24,1.12,1.93
			l1.15-0.2c0.25-0.05,0.5,0.13,0.55,0.38l0.35,1.97c0.02,0.12-0.01,0.25-0.08,0.35c-0.07,0.1-0.18,0.17-0.31,0.19l-1.15,0.2
			c-0.02,0.75-0.15,1.49-0.39,2.2l1.02,0.59c0.11,0.06,0.19,0.17,0.22,0.29c0.03,0.12,0.01,0.25-0.05,0.36l-1,1.73
			c-0.13,0.23-0.42,0.31-0.65,0.17l-1.02-0.59c-0.5,0.57-1.07,1.05-1.71,1.44l0.4,1.1c0.04,0.12,0.04,0.25-0.02,0.36
			c-0.05,0.11-0.15,0.2-0.27,0.25l-1.88,0.68C14.07,20.86,14.02,20.87,13.96,20.87z M13.43,18.45c0.2,0,0.38,0.12,0.45,0.31
			l0.37,1.03l0.99-0.36l-0.37-1.03c-0.08-0.22,0.01-0.47,0.22-0.58c0.79-0.42,1.47-1,2.03-1.71c0.15-0.19,0.41-0.23,0.61-0.12
			l0.95,0.55l0.52-0.91l-0.95-0.55c-0.2-0.12-0.29-0.37-0.2-0.59c0.31-0.78,0.47-1.59,0.47-2.42l-0.01-0.2
			c-0.01-0.23,0.16-0.44,0.39-0.48l1.09-0.19l-0.18-1.03l-1.08,0.19c-0.24,0.04-0.46-0.1-0.53-0.32c-0.28-0.85-0.73-1.62-1.33-2.3
			c-0.16-0.17-0.16-0.44-0.01-0.62l0.71-0.85l-0.8-0.67l-0.71,0.84c-0.15,0.18-0.41,0.22-0.61,0.1c-0.76-0.47-1.6-0.78-2.5-0.91
			c-0.23-0.03-0.41-0.23-0.41-0.47v-1.1h-1.05v1.1c0,0.24-0.17,0.44-0.41,0.47c-0.89,0.13-1.73,0.43-2.5,0.91
			c-0.2,0.12-0.46,0.08-0.61-0.1L7.25,5.61l-0.8,0.67l0.71,0.85c0.15,0.18,0.15,0.45-0.01,0.62C6.54,8.43,6.1,9.2,5.82,10.05
			c-0.07,0.22-0.29,0.37-0.53,0.32L4.2,10.18l-0.18,1.03l1.09,0.19c0.23,0.04,0.4,0.24,0.39,0.48l-0.01,0.11
			c0,0.92,0.15,1.73,0.46,2.51c0.09,0.22,0,0.47-0.2,0.59L4.8,15.64l0.52,0.91l0.95-0.55c0.2-0.12,0.46-0.07,0.61,0.12
			c0.56,0.71,1.25,1.29,2.03,1.71c0.21,0.11,0.3,0.36,0.22,0.58l-0.37,1.03l0.99,0.36l0.37-1.03c0.08-0.22,0.31-0.36,0.54-0.3
			c0.88,0.18,1.79,0.18,2.66,0C13.36,18.45,13.4,18.45,13.43,18.45z M12,16.55c-2.46,0-4.47-2-4.47-4.47c0-2.46,2-4.46,4.47-4.46
			c2.46,0,4.46,2,4.46,4.46C16.47,14.55,14.46,16.55,12,16.55z M12,8.57c-1.94,0-3.52,1.58-3.52,3.52c0,1.94,1.58,3.52,3.52,3.52
			c1.94,0,3.52-1.58,3.52-3.52C15.52,10.15,13.94,8.57,12,8.57z"/>
	</g>
</g>
</svg>
