<?xml version="1.0" encoding="utf-8"?>
<!-- Generator: Adobe Illustrator 24.1.1, SVG Export Plug-In . SVG Version: 6.00 Build 0)  -->
<svg version="1.1" id="Layer_1" xmlns="http://www.w3.org/2000/svg" xmlns:xlink="http://www.w3.org/1999/xlink" x="0px" y="0px"
	 viewBox="0 0 24 24" style="enable-background:new 0 0 24 24;" xml:space="preserve">
<style type="text/css">
	.st0{fill:none;}
	.st1{fill:#2CAAE1;}
	.st2{fill:#FFFFFF;}
</style>
<g>
	<rect class="st0" width="24" height="24"/>
	<g>
		<g>
			<path class="st1" d="M19,21H5c-1.1,0-2-0.9-2-2V5c0-1.1,0.9-2,2-2h14c1.1,0,2,0.9,2,2v14C21,20.1,20.1,21,19,21z"/>
		</g>
		<g>
			<path class="st2" d="M12,16.3c-0.1,0-0.3-0.1-0.4-0.1l-5.5-5.5c-0.2-0.2-0.2-0.5,0-0.7s0.5-0.2,0.7,0l5.2,5.2l5.2-5.2
				c0.2-0.2,0.5-0.2,0.7,0s0.2,0.5,0,0.7l-5.5,5.5C12.3,16.2,12.1,16.3,12,16.3z"/>
		</g>
	</g>
</g>
</svg>
