<?xml version="1.0" encoding="utf-8"?>
<!-- Generator: Adobe Illustrator 24.1.1, SVG Export Plug-In . SVG Version: 6.00 Build 0)  -->
<svg version="1.1" id="Layer_1" xmlns="http://www.w3.org/2000/svg" xmlns:xlink="http://www.w3.org/1999/xlink" x="0px" y="0px"
	 viewBox="0 0 24 24" style="enable-background:new 0 0 24 24;" xml:space="preserve">
<style type="text/css">
	.st0{fill:none;}
	.st1{fill:#DDDDDD;}
</style>
<g>
	<rect class="st0" width="24" height="24"/>
	<g>
		<g>
			<path class="st1" d="M12,16c-0.1,0-0.2,0-0.3-0.1l-5.2-5.2c-0.2-0.2-0.2-0.5,0-0.7c0.2-0.2,0.5-0.2,0.7,0l4.9,4.9l4.9-4.9
				c0.2-0.2,0.5-0.2,0.7,0s0.2,0.5,0,0.7l-5.2,5.2C12.2,16,12.1,16,12,16z"/>
		</g>
		<g>
			<path class="st1" d="M18.6,21H5.4C4.1,21,3,19.9,3,18.6V5.4C3,4.1,4.1,3,5.4,3h13.3C19.9,3,21,4.1,21,5.4v13.3
				C21,19.9,19.9,21,18.6,21z M5.4,3.9c-0.8,0-1.4,0.6-1.4,1.4v13.3c0,0.8,0.6,1.4,1.4,1.4h13.3c0.8,0,1.4-0.6,1.4-1.4V5.4
				c0-0.8-0.6-1.4-1.4-1.4H5.4z"/>
		</g>
	</g>
</g>
</svg>
