<?xml version="1.0" encoding="utf-8"?>
<!-- Generator: Adobe Illustrator 24.1.1, SVG Export Plug-In . SVG Version: 6.00 Build 0)  -->
<svg version="1.1" id="Layer_1" xmlns="http://www.w3.org/2000/svg" xmlns:xlink="http://www.w3.org/1999/xlink" x="0px" y="0px"
	 viewBox="0 0 24 24" style="enable-background:new 0 0 24 24;" xml:space="preserve">
<style type="text/css">
	.st0{fill:none;}
	.st1{fill:#2CAAE1;}
</style>
<g>
	<rect class="st0" width="24" height="24"/>
	<path class="st1" d="M18.07,4.4h-1.07v-0.9c0-0.27-0.22-0.49-0.49-0.49s-0.49,0.22-0.49,0.49v0.9H7.98v-0.9
		C7.98,3.22,7.76,3,7.48,3S6.99,3.22,6.99,3.49v0.9H5.93c-1.23,0-2.23,1-2.23,2.23v1.99v10.16C3.7,20,4.7,21,5.93,21h12.15
		c1.23,0,2.23-1,2.23-2.23V8.61V6.62C20.3,5.4,19.3,4.4,18.07,4.4z M4.68,6.62c0-0.69,0.56-1.24,1.24-1.24h1.07v0.9
		c0,0.27,0.22,0.49,0.49,0.49s0.49-0.22,0.49-0.49v-0.9h8.05v0.9c0,0.27,0.22,0.49,0.49,0.49s0.49-0.22,0.49-0.49v-0.9h1.07
		c0.69,0,1.24,0.56,1.24,1.24v1.5H4.68V6.62z M19.32,18.77c0,0.69-0.56,1.24-1.24,1.24H5.93c-0.69,0-1.24-0.56-1.24-1.24V9.11h14.63
		V18.77z"/>
	<polygon class="st1" points="12.15,11.49 12.15,17.65 13.04,17.65 13.04,10.58 12.15,10.58 11.13,11.26 11.13,12.15 12.11,11.49 	
		"/>
</g>
</svg>
