<?xml version="1.0" encoding="utf-8"?>
<!-- Generator: Adobe Illustrator 24.1.1, SVG Export Plug-In . SVG Version: 6.00 Build 0)  -->
<svg version="1.1" id="Layer_1" xmlns="http://www.w3.org/2000/svg" xmlns:xlink="http://www.w3.org/1999/xlink" x="0px" y="0px"
	 viewBox="0 0 24 24" style="enable-background:new 0 0 24 24;" xml:space="preserve">
<style type="text/css">
	.st0{fill:none;}
	.st1{fill:#2CAAE1;}
</style>
<g>
	<rect class="st0" width="24" height="24"/>
	<g>
		<path class="st1" d="M12,11.74c2.43,0,4.41-1.98,4.41-4.41S14.43,2.92,12,2.92S7.59,4.9,7.59,7.33S9.57,11.74,12,11.74z M12,3.86
			c1.91,0,3.47,1.56,3.47,3.47c0,1.91-1.56,3.47-3.47,3.47c-1.91,0-3.47-1.56-3.47-3.47C8.53,5.42,10.09,3.86,12,3.86z"/>
		<path class="st1" d="M15.76,13.24H8.24c-2.85,0-5.17,2.32-5.17,5.17v2.04c0,0.26,0.21,0.47,0.47,0.47s0.47-0.21,0.47-0.47v-2.04
			c0-2.33,1.9-4.23,4.23-4.23h7.52c2.33,0,4.23,1.9,4.23,4.23v2.04c0,0.26,0.21,0.47,0.47,0.47c0.26,0,0.47-0.21,0.47-0.47v-2.04
			C20.93,15.56,18.61,13.24,15.76,13.24z"/>
	</g>
</g>
</svg>
